# xmcd CD database file
#
# Track frame offsets:
#	150
#	16913
#	35512
#	52162
#	69235
#	83770
#	104813
#	120328
#	138075
#	158509
#	180441
#	202227
#	221576
#	240050
#	262480
#	279585
#	293577
#
# Disc length: 4118 seconds
#
# Revision: 0
# Processed by: cddbd v1.4PL0 Copyright (c) Steve Scherf et al.
# Submitted via: CDex 1.50beta10
#
DISCID=f0101411
DTITLE=Gipsy Kings - MTV History Hits 2002
DYEAR=2002
DGENRE=Salsa
TTITLE0=Somos Gitanos
TTITLE1=Magia Del Ritmo
TTITLE2=Volare
TTITLE3=Baila Me
TTITLE4=Soy
TTITLE5=Escucha Me
TTITLE6=Djobi Djoba
TTITLE7=Solo, Solo Dire
TTITLE8=Majiwi
TTITLE9=Como In Silencio
TTITLE10=Medley: Bamboleo, Volare, Djobi Djoba, Pida Me La, Baila Me
TTITLE11=Jo Busco Un Camino
TTITLE12=Flamencos Enel Aike
TTITLE13=Mi Fa Ndango
TTITLE14=One Love
TTITLE15=Bem Bem Maria
TTITLE16=Bamboleo
EXTD=YEAR: 2002
EXTT0=
EXTT1=
EXTT2=
EXTT3=
EXTT4=
EXTT5=
EXTT6=
EXTT7=
EXTT8=
EXTT9=
EXTT10=
EXTT11=
EXTT12=
EXTT13=
EXTT14=
EXTT15=
EXTT16=
PLAYORDER=
